<svg width="198" height="135" fill="none" xmlns="http://www.w3.org/2000/svg"><mask id="development-card-bg_svg__a" style="mask-type:alpha" maskUnits="userSpaceOnUse" x="0" y="0" width="198" height="135"><rect width="198" height="135" rx="8" fill="#D9D9D9"></rect></mask><g mask="url(#development-card-bg_svg__a)"><mask id="development-card-bg_svg__b" style="mask-type:alpha" maskUnits="userSpaceOnUse" x="-107" y="0" width="305" height="400"><rect x="-107" width="305" height="400" rx="8" fill="#222"></rect></mask><g mask="url(#development-card-bg_svg__b)"><path d="m204.161 33.905 28.476-16.424.284-.164.285.164v-.33L261.966.564l28.903 16.668.284-.494L262.251.07v-32.842l28.618 16.503.142.08 28.761-16.589.284-.165.284.165 28.619 16.504.142.08 28.76-16.59V.059l-28.902 16.668.284.494L378.145.552l29.33 16.912v-33.808l28.476-16.423V.239h.568v-33.006l28.619 16.503.142.08 28.76-16.59.285-.164 28.902 16.668.143.08 28.76-16.589V.228h.569v-33.336l.284-.165 28.618-16.503-.284-.495-28.618 16.504V-66.61l28.476-16.424.284-.165.284.165 28.619 16.503.142.08 29.045-16.748.284.165v-.33l.284-.165-.284-.164v-33.149l28.476-16.424.285-.165.284.165 28.618 16.503.285-.494-28.619-16.503 14.144-8.158 14.327-8.266 28.76 16.588v.33l.284-.165.285.165v-.33l29.045-16.747v-33.172l28.618 16.504.142.079 29.045-16.748.284.165v-.329l.285-.165-.285-.165v-33.171l28.761-16.583.284.164v-.329l.284-.165-.284-.165v-33.501l-29.068-16.747v-.33l-.284.165-.284-.165v.33l-28.761 16.588-28.76-16.588v-.33l-.285.165-.284-.165v.33l-28.76 16.588-28.761-16.588v-.33l-.284.165-.284-.165v.33l-28.761 16.588L639.242-285v34.154l28.76 16.589-28.476 16.424-28.903-16.668-.284.494 28.903 16.668v32.842L610.623-201l-.142-.08-28.76 16.589-.285.165-.284-.165v.329l-28.76 16.589-28.903-16.668-.284.494 28.902 16.668v32.842l-28.618-16.503-.142-.08-28.761 16.589-.284.165-.284-.165v.33l-28.761 16.588-28.76-16.588v-33.501l-29.045-16.748v-33.501l-29.187-16.833-.284.494 28.902 16.668v32.842l-28.618-16.503-.142-.08-28.761 16.589-.284.165-.284-.165v.33l-28.761 16.588-28.76-16.588v-33.365h-.569v33.007l-28.618-16.504-.142-.079-28.761 16.588-.284.165-.285-.165v.33l-28.902 16.668.284.494 28.618-16.503v33.171l.143.08 14.735 8.499 13.883 8.004-13.399 7.727-15.219 8.777-.143.079v33.501L203.57-66.922v33.501l-28.761 16.589-28.76-16.589v-33.171l28.902-16.669-.284-.494-28.903 16.668-28.76-16.588v-.33l-.284.165-.285-.165v.33L87.39-66.928v33.502L58.63-16.838 29.87-33.426v-.33l-.285.165-.284-.165v.33L.284-16.673v33.501L0 16.993l.284.165v33.5L29.33 67.407v33.501l29.045 16.748v.33l.284-.165.285.165 28.76 16.588 28.761-16.588.284-.165.284.165 28.761 16.588 29.045-16.747.284.164v-.329l.284-.165-.284-.165V84.16l28.76-16.589.285.165v-.33l.284-.164-.284-.165V33.905h-.006ZM261.676.08 233.2 16.504v-32.848l28.476-16.423V.08Zm29.329-16.912-28.476-16.424 28.476-16.424 28.476 16.424-28.476 16.424ZM277.197-91.8l-14.952-8.624v-32.842l13.524 7.8 14.952 8.624v32.842l-13.524-7.8Zm13.24 8.294L261.961-67.08l-28.476-16.424 28.476-16.424 28.476 16.424Zm29.329 49.755-14.252-8.22-14.224-8.204v-32.842l8.337 4.806 20.139 11.612v32.848Zm29.329 16.918-28.476-16.424 28.476-16.424 28.476 16.424-28.476 16.424Zm-28.76-16.918v-32.842l16.436-9.482 12.04-6.942v32.842L320.335-33.75Zm57.515 0-13.997-8.073-14.479-8.351v-32.842l13.996 8.073 14.48 8.35v32.843Zm-28.186-49.755 28.476-16.424 28.476 16.424L378.14-67.08l-28.476-16.424Zm-.285-.494v-32.842l28.476-16.424v32.842l-28.476 16.424Zm29.039-16.424v-32.842l13.525 7.8 14.952 8.624v32.842l-13.525-7.8-14.952-8.624Zm28.477 17.407v32.842L378.418-33.75v-32.842l28.477-16.424Zm0 99.515L385.539 4.182 378.418.075v-32.842l13.525 7.8 14.952 8.623V16.5Zm.284-33.337-28.476-16.424 28.476-16.424 28.476 16.424-28.476 16.424Zm28.76-16.912-13.996-8.073-14.48-8.351v-32.842l13.997 8.073 14.479 8.35v32.843Zm87.413 16.918-28.476-16.424 28.476-16.424 28.477 16.424-28.477 16.424Zm-28.76-16.918v-32.842l28.476-16.424v32.842L494.592-33.75Zm57.521 0-13.996-8.073-14.48-8.351v-32.842l13.996 8.073 14.48 8.35v32.843Zm58.374-33.337L582.011-83.51l28.476-16.424 28.476 16.424-28.476 16.423Zm-28.761-16.912v-32.842l28.477-16.424v32.842l-28.477 16.424Zm57.516 0-13.525-7.8-14.951-8.624v-32.842l13.524 7.8 14.952 8.624v32.842Zm58.089-66.673-14.224 8.204-14.252 8.22v-32.842l14.673-8.465 13.803-7.959v32.842Zm29.045 16.424L697.9-150.672v-32.842l13.524 7.8 14.952 8.624v32.842Zm29.045-16.424-28.476 16.424v-32.842l28.476-16.424v32.842Zm58.652-133.345 28.477 16.424v32.842l-13.525-7.8-14.952-8.624v-32.842Zm-.284 33.336 28.476 16.424-28.476 16.424-28.476-16.424 28.476-16.424Zm-28.76-16.912 28.476-16.424v32.842l-28.476 16.424v-32.842Zm0 33.83 13.996 8.073 14.48 8.351v32.842l-13.997-8.072-14.479-8.352v-32.842Zm28.191 49.755-28.476 16.424-28.476-16.424 28.476-16.424 28.476 16.424Zm-57.23-.494v-32.842l28.476-16.424v32.847l-28.476 16.419Zm0-99.515 28.476 16.424v32.842l-13.525-7.8-14.951-8.624v-32.842Zm-.285 33.336 28.476 16.424-28.476 16.424-28.476-16.424 28.476-16.424Zm-28.76-16.912 28.476-16.424v32.842l-28.476 16.424v-32.842Zm0 33.83 13.996 8.073 14.48 8.351v32.842l-13.996-8.072-14.48-8.352v-32.842Zm28.191 49.755-28.476 16.424-28.476-16.424 28.476-16.424 28.476 16.424Zm-57.236-.494v-32.842l28.476-16.424v32.847L697.9-184.502Zm0-99.515 28.476 16.424v32.842l-13.524-7.8-14.952-8.624v-32.842Zm-.284 33.336 28.476 16.424-28.476 16.424-28.476-16.424 28.476-16.424Zm-28.761-16.912 28.476-16.424v32.842l-28.476 16.424v-32.842Zm0 33.83 14.252 8.221 14.224 8.203v32.842l-14.252-8.22-14.224-8.204v-32.842Zm-29.045-17.406v-32.848l28.476 16.424v32.842l-28.476-16.418Zm0 33.825 28.476-16.424v32.847l-28.476 16.424v-32.847Zm0 33.501 28.761-16.589 28.476 16.424-13.684 7.891-14.934 8.612-.143.08v33.171l-13.996-8.072-14.48-8.351v-33.166Zm-.284 33.665 28.476 16.424-28.476 16.424-28.476-16.424 28.476-16.424Zm-.284-.494-28.476 16.424v-32.842l28.476-16.424v32.842Zm-28.755-49.76 28.476 16.424-28.476 16.424-28.476-16.424 28.476-16.424Zm-28.761 16.918 13.525 7.8 14.952 8.624v32.842l-13.997-8.073-14.48-8.351v-32.842Zm-.284 33.336 28.476 16.424-28.476 16.424-28.476-16.424 28.476-16.424Zm-28.76-16.918 28.476-16.424v32.843l-28.476 16.423v-32.842Zm0 33.831 13.524 7.8 14.952 8.624v32.842l-13.525-7.8-14.951-8.624v-32.842Zm-.285 33.336 28.476 16.424-28.476 16.424-28.476-16.424 28.476-16.424Zm-.284-.494-28.476 16.424v-32.842l28.476-16.424v32.842Zm-28.761-49.755 28.477 16.424-28.477 16.424-28.476-16.424 28.476-16.424Zm-28.76 16.913 13.803 7.959 14.673 8.465v32.842l-13.803-7.96-14.673-8.464v-32.842Zm-.284 33.336 28.476 16.424-28.476 16.424-23.29-13.43-5.186-2.994 28.476-16.424Zm-28.755-16.912 28.476-16.424v32.842l-28.476 16.424v-32.842Zm0 33.825 11.369 6.556 17.107 9.862v33.172l-.284.164-28.476 16.424-28.477-16.424-.284-.164v-33.172l21.583-12.447 6.893-3.977.285-.165.284.17Zm-29.045-50.249 28.476 16.424v32.842l-13.524-7.8-14.952-8.624v-32.842Zm28.192 49.76L436.224-67.08l-28.476-16.424 28.476-16.424L464.7-83.505Zm-57.237-.494v-32.842l28.476-16.424v32.842l-28.476 16.424Zm0-99.515 28.476 16.424v32.842l-13.996-8.073-14.48-8.351v-32.842Zm-.284 33.336 28.476 16.424-28.476 16.424-28.476-16.424 28.476-16.424Zm-.284-.494-28.477 16.424v-32.842l28.477-16.424v32.842Zm-28.761-49.76 28.476 16.424-28.476 16.424-28.476-16.424 28.476-16.424Zm-28.755 16.918 13.525 7.8 14.951 8.624v32.842l-13.996-8.073-14.48-8.351v-32.842Zm-.284 33.336 28.476 16.424-28.476 16.424-28.476-16.424 28.476-16.424Zm-28.76-16.918 28.476-16.424v32.843l-28.476 16.423v-32.842Zm0 33.831 28.476 16.424v33.171L320.05-67.08 291.29-83.67v-33.171l9.588-5.528 18.888-10.89.284-.165.285.159Zm-29.045-50.249 28.476 16.424v32.842l-14.252-8.22-14.224-8.204v-32.842Zm-.285 33.336 28.476 16.424-18.984 10.948-9.492 5.476-28.476-16.424 28.476-16.424Zm-.284-.494-28.476 16.424v-32.842l28.476-16.424v32.842Zm-28.76-49.76 28.476 16.424-28.476 16.424-28.476-16.424 28.476-16.424Zm-14.281 58.111-14.48-8.351v-32.842l13.524 7.8 14.952 8.624v32.842l-13.996-8.073Zm-14.48 25.48 14.952-8.624 13.524-7.8v32.842L233.2-83.999v-32.842Zm0 33.825 28.618 16.503.143.08.142-.08 28.618-16.503v32.842L262.245-33.75l-.284.164-9.276-5.351L233.2-50.174v-32.842Zm-.284 33.336 28.476 16.424-28.476 16.424-28.476-16.424 28.476-16.424Zm-28.755-16.912 28.476-16.424v32.842L204.161-33.75v-32.842Zm0 33.825 13.524 7.8 14.952 8.623V16.5l-13.524-7.8L204.161.074v-32.842Zm-29.045 16.423 28.476-16.423V.075l-28.476 16.424v-32.843Zm-29.045-16.423 28.476 16.423v33.172l-28.76 16.589-21.799-12.573-6.961-4.01v-33.178l28.76-16.588.284.165Zm28.476 50.254v32.842l-28.476 16.424V33.911l28.476-16.424Zm-29.044 16.418v32.842l-28.476-16.424V17.481l6.705 3.87 21.771 12.554ZM117.027-83.016l28.476 16.424v32.842l-13.997-8.073-14.479-8.351v-32.842Zm-.285 33.336 28.476 16.424-7.149 4.124-21.321 12.3-28.476-16.424 28.47-16.424Zm-28.76-16.912 28.476-16.424v32.842L87.982-33.75v-32.842Zm0 33.825 13.803 7.959 14.673 8.464V16.5l-13.803-7.96L87.982.075v-32.842ZM87.697.569l28.477 16.424-14.253 8.22-14.224 8.204-28.476-16.424L87.697.569Zm28.761 16.918v32.842L87.982 66.753V33.911l28.476-16.424Zm-57.515-33.83 28.476-16.424V.075L58.943 16.499v-32.843Zm0 33.83 28.476 16.424v32.842L58.943 50.329V17.487ZM29.898-32.767l28.476 16.423V16.5l-13.524-7.8L29.898.074v-32.842ZM.853-16.345 29.33-32.767V.075L.853 16.499v-32.843ZM29.33 66.753.853 50.329V17.487L29.33 33.911v32.842ZM1.137 16.993 29.613.569 58.09 16.993l-13.997 8.073-14.48 8.35L1.137 16.994Zm57.237.494v32.842L29.898 66.753V33.911l28.476-16.424Zm0 99.515-28.476-16.424V67.736L58.374 84.16v32.842Zm.284-33.337L30.182 67.242l13.013-7.505 15.463-8.92 28.476 16.425-13.012 7.504-15.464 8.92Zm.285.495 28.476-16.424v32.842l-28.476 16.424V84.16Zm28.754 49.754L59.221 117.49l13.013-7.504 15.463-8.92 28.477 16.424-28.477 16.424Zm28.761-16.912-28.476-16.424V67.736l28.476 16.424v32.842Zm.284-33.337L88.266 67.242l13.314-7.681 15.162-8.743 28.476 16.424-13.012 7.504-15.464 8.92Zm.285.495 28.476-16.424v32.842l-28.476 16.424V84.16Zm28.76 49.754-28.476-16.424 13.012-7.504 15.464-8.92 28.476 16.424-28.476 16.424Zm28.76-16.912-28.476-16.424V67.736l28.476 16.424v32.842Zm.285-33.337-28.476-16.423 13.012-7.505 15.464-8.92 28.476 16.425-28.476 16.423Zm28.76-16.912-28.476-16.424V17.487l28.476 16.424v32.842Zm.285-33.336-28.476-16.424L203.877.569l28.476 16.424-28.476 16.424Zm877.833 142.599v-33.501l-29.04-16.747v-.33l-.29.165-.28-.165v.33l-28.76 16.583-28.764-16.583v-.33l-.285.165-.284-.165v.33l-28.761 16.583-28.76-16.583v-.33l-.284.165-.285-.165v.33l-28.76 16.583-29.329-16.913v34.155l28.76 16.588-21.248 12.254-7.222 4.164-28.903-16.668-.284.494 28.902 16.669v32.842l-28.76-16.589-28.761 16.589-.284.164-.284-.164v.329l-28.761 16.589-28.902-16.668-.285.494 28.903 16.668v32.842l-28.761-16.588-28.76 16.588-.284.165-.285-.165v.33l-28.76 16.588-28.761-16.588v-.33l-.284.165-.284-.165-28.761-16.588-28.76 16.588-.285.165-.284-.165-28.476-16.424v-33.83l-29.329 16.912-28.761-16.588v-33.337h-.568v33.007l-13.883-8.005-14.878-8.578-28.76 16.589-.285.164-.284-.164v.329l-28.903 16.668.285.495 28.618-16.504v33.172l28.76 16.588-28.618 16.504-.142.079v33.501l-28.903 16.669-.142.079v33.501l-28.76 16.583-28.476-16.424-.285-.164V343.84l28.903-16.668-.284-.494-28.903 16.668-28.76-16.589v-.329l-.285.164-.284-.164v.329l-28.903 16.668-.142.08v33.501l-28.76 16.583-28.761-16.583v-.33l-.284.165-.285-.165v.33l-28.902 16.668-.142.08v33.501l-.285.165.285.164v33.501l29.044 16.748v33.501l29.045 16.748v.329l.285-.164.284.164L326.266 545l28.761-16.589.284-.164.285.164L384.356 545l29.045-16.748.284.165v-.329l.285-.165-.285-.165v-33.172l28.761-16.588.284.165v-.33l.284-.165-.284-.164v-33.172l28.476-16.424.284-.165.285.165v-.329l28.76-16.589 28.903 16.668.284-.494-28.902-16.668v-32.842l28.76 16.583 28.76-16.583.285-.165.284.165 28.761 16.583 28.76-16.583v32.842l-28.903 16.668.285.494 28.902-16.668 29.33 16.912v-33.83l13.734-7.92 14.742-8.498v33.006h.568v-33.006l28.761 16.583 28.76-16.583.285-.165 29.044 16.748 28.761-16.583v33.006h.569v-33.336l28.902-16.668-.284-.494-28.618 16.503v-32.842l28.476-16.424.284-.165.284.165 28.761 16.589 29.045-16.748.284.165v-.33l.284-.164-.284-.165v-33.172l28.476-16.424.284-.164.285.164 28.618 16.504.284-.495-28.618-16.503 28.476-16.424 28.761 16.589v.329l.284-.164.284.164v-.329l28.903-16.668.142-.08v-33.171l28.759 16.588 29.05-16.748.28.165v-.329l.29-.165-.29-.165v-33.171l28.76-16.589.29.165v-.33l.28-.165-.29-.142Zm-58.09-33.171 28.48-16.424v32.842l-28.48 16.424v-32.842Zm-29.039-16.418 28.479 16.424v32.842l-28.479-16.424v-32.842Zm-29.045 16.418 28.476-16.424v32.842l-28.476 16.424v-32.842Zm-29.044-16.418 28.476 16.424v32.842l-28.476-16.424v-32.842Zm-29.045 16.418 28.476-16.424v32.842l-28.476 16.424v-32.842Zm-29.045 16.424v-32.842l28.476 16.424v32.842l-28.476-16.424Zm0 33.83 28.476-16.424v32.842l-28.476 16.424v-32.842Zm-29.324 16.913 28.477 16.424-13.013 7.504-15.464 8.92-28.476-16.424 28.476-16.424Zm28.755 16.912v32.842l-28.476 16.424v-32.842l28.476-16.424Zm-57.515 0 28.476 16.424v32.842l-28.476-16.424v-32.842Zm-29.045 16.424 28.476-16.424v32.842l-28.476 16.424v-32.842Zm-29.329 16.913 28.476 16.423-13.314 7.681-15.162 8.743-28.476-16.424 28.476-16.423Zm28.761 16.912v32.842l-28.477 16.424v-32.842l28.477-16.424Zm-57.521 0 28.476 16.424v32.842l-28.476-16.424v-32.842Zm-29.039 16.424 28.476-16.424v32.842l-28.476 16.424v-32.842ZM675.1 277.173l28.476 16.424v32.842L675.1 310.015v-32.842Zm-29.329-16.912 28.476 16.423-13.013 7.505-15.463 8.919-28.476-16.424 28.476-16.423Zm28.76 16.912v32.842l-28.476 16.424v-32.842l28.476-16.424Zm-57.521 0 28.476 16.424v32.842l-28.476-16.424v-32.842Zm-.853-.489-13.314 7.681-15.162 8.743-21.322-12.299-7.148-4.125 13.012-7.504 15.464-8.919 28.47 16.423Zm.284.489v32.842l-28.476 16.424v-32.842l28.476-16.424Zm-57.515-33.825 28.476-16.424v32.842l-28.476 16.424v-32.842Zm-29.045-16.424 28.476 16.424v32.842l-28.476-16.424v-32.842Zm-.284 33.337 28.476 16.423-28.476 16.424-28.476-16.424 13.012-7.504 15.464-8.919Zm-28.76 49.76v-32.842l28.476 16.424v32.842l-28.476-16.424Zm28.191 16.912-13.012 7.505-15.464 8.919-15.463-8.919-13.013-7.505 13.996-8.073 14.48-8.351 28.476 16.424Zm.285-67.167-28.476 16.424v-32.842l28.476-16.424v32.842Zm-28.761-49.754 15.464 8.919 13.012 7.505-13.012 7.504-15.464 8.92-28.476-16.424 28.476-16.424Zm-28.76 49.754v-32.842l28.476 16.424v32.842l-28.476-16.424Zm0 33.831 28.476-16.424v32.842l-28.476 16.424v-32.842Zm-29.045 50.249 28.476-16.424v32.842l-28.476 16.424v-32.842ZM413.708 394.1l28.476-16.424v32.842l-28.476 16.424V394.1Zm-29.045-16.424 28.476 16.424v33.172l-28.76 16.588-21.8-12.572-6.961-4.011v-33.171l21.8-12.572 6.961-4.011.284.153Zm28.476 50.249v32.842l-28.476 16.424v-32.842l28.476-16.424Zm-29.045 16.424v32.842l-28.476-16.424v-32.842l6.706 3.869 21.77 12.555Zm-28.476-116.921 28.476 16.423v32.842l-28.476-16.423v-32.842Zm-.284 33.336 28.476 16.424-28.476 16.424-28.476-16.424 13.012-7.505 15.464-8.919Zm-28.761-16.918 28.477-16.424v32.842l-28.477 16.424v-32.842Zm0 33.83L355.05 394.1v32.842l-28.477-16.424v-32.842Zm-.284 33.337 28.476 16.424-13.996 8.072-14.48 8.351-28.476-16.423 13.012-7.505 15.464-8.919Zm28.761 16.912v32.842l-28.477 16.424v-32.842l28.477-16.424ZM297.529 394.1l28.476-16.424v32.842l-28.476 16.424V394.1Zm0 33.825 28.476 16.424v32.842l-28.476-16.424v-32.842Zm-29.039-50.249 28.476 16.424v32.842l-28.476-16.424v-32.842ZM239.445 394.1l28.476-16.424v32.842l-28.476 16.424V394.1Zm28.476 83.091-28.476-16.424v-32.842l28.476 16.424v32.842Zm-28.192-49.754 13.013-7.505 15.463-8.919 28.476 16.424-13.996 8.072-14.48 8.351-28.476-16.423Zm57.231.488v32.842l-28.476 16.424v-32.842l28.476-16.424Zm0 99.515-28.476-16.424v-32.842l28.476 16.424v32.842Zm.284-33.336-28.476-16.424 13.013-7.505 15.463-8.919 28.476 16.424-13.012 7.504-15.464 8.92Zm.285.494 28.476-16.424v32.842l-28.476 16.424v-32.842Zm28.76 49.76-28.476-16.424 13.012-7.505 15.464-8.919 28.476 16.424-28.476 16.424Zm28.761-16.918-28.477-16.424v-32.842l28.477 16.424v32.842Zm.284-33.336-28.476-16.424 13.012-7.505 15.464-8.919 28.476 16.424-13.012 7.504-15.464 8.92Zm.284.494 28.476-16.424v32.842l-28.476 16.424v-32.842Zm28.761 49.76-28.476-16.424 13.012-7.505 15.464-8.919 28.476 16.424-28.476 16.424Zm28.76-16.918-28.476-16.424v-32.842l28.476 16.424v32.842Zm.285-33.336-28.477-16.424 13.314-7.681 15.163-8.743L441.9 477.68l-28.476 16.424Zm28.754-16.913-28.476-16.424v-32.842l28.476 16.424v32.842Zm.285-33.336-28.476-16.424 13.012-7.505 15.464-8.919 28.476 16.424-28.476 16.424Zm28.76-16.913-28.476-16.424v-32.842l28.476 16.424v32.842Zm.284-33.336-28.476-16.424 13.013-7.505 15.463-8.919 17.102 9.862 11.375 6.562-13.997 8.073-14.48 8.351Zm28.761 16.912-28.476 16.424V394.1l28.476-16.424v32.842Zm.284-33.66-11.482-6.624-17.278-9.964v-32.842l13.882 8.004 14.878 8.578 14.878-8.578 13.883-8.004v32.842l-17.278 9.964-11.198 6.459-.285.165Zm29.045 16.748-28.476-16.424 28.476-16.424 28.476 16.424-28.476 16.424Zm28.76-16.913-28.476-16.423v-32.842l18.984 10.947 9.492 5.476v32.842Zm.285-33.336-28.761-16.589v-33.171l21.367-12.322 7.109-4.096.285-.165.284.165 7.109 4.096 21.367 12.322v33.171l-23.005 13.271-5.755 3.318Zm.284.489 17.102-9.863 11.374-6.555v32.842l-28.476 16.423v-32.847Zm28.755 49.76-28.476-16.424 13.012-7.505 15.464-8.919 28.476 16.424-28.476 16.424Zm28.76-16.913-28.476-16.423v-32.842l28.476 16.423v32.842Zm-28.191-49.76 14.252-8.22 14.224-8.204 28.476 16.424-13.013 7.505-15.463 8.919-28.476-16.424Zm57.236.495v32.842l-28.476 16.423v-32.842l28.476-16.423Zm0 99.514-28.476-16.424v-32.842l28.476 16.424v32.842Zm14.764-41.687-14.479 8.351-28.476-16.424 13.012-7.505 15.464-8.919 28.476 16.424-13.997 8.073Zm14.281-8.562-28.476-16.423v-32.842l28.476 16.423v32.842Zm.284-33.336-28.476-16.424 13.997-8.073 14.479-8.351 28.476 16.424-28.476 16.424Zm57.8 33.66-28.761 16.589-28.76-16.589v-33.171l28.76-16.589 28.761 16.589v33.171Zm-9.208-39.136-18.984-10.948 13.997-8.073 14.479-8.351 28.476 16.424-13.012 7.505-15.464 8.919-9.492-5.476Zm9.777 5.965 28.476-16.424v32.842l-28.476 16.424v-32.842Zm28.76 49.76-28.476-16.424 13.012-7.505 15.464-8.919 28.476 16.424-28.476 16.424Zm28.761-16.913-28.477-16.423v-32.842l28.477 16.423v32.842Zm.284-33.336-28.476-16.424 14.252-8.22 14.224-8.204 28.476 16.424-28.476 16.424Zm28.76-16.918-28.476-16.424v-32.842l28.476 16.424v32.842Zm.285-33.336-28.476-16.424 13.012-7.505 15.464-8.919 28.476 16.424-13.013 7.504-15.463 8.92Zm.284.494 28.476-16.424v32.842l-28.476 16.424v-32.842Zm28.76 49.76-28.476-16.424 13.997-8.073 14.479-8.351 28.477 16.424-28.477 16.424Zm28.755-16.918-28.476-16.424v-32.842l28.476 16.424v32.842Zm.285-33.336-28.476-16.424 13.012-7.505 15.464-8.919 28.476 16.424-28.476 16.424Zm28.902-50.164-.142.08v33.171l-28.476-16.424v-33.171l21.532-12.419 7.223-4.164 28.476 16.424-28.613 16.503Zm28.903 16.827-28.476 16.424v-32.842l28.476-16.424v32.842Zm0-33.825-28.476-16.424v-32.842l28.476 16.424v32.842Zm-28.192-49.76 13.013-7.504 15.463-8.92 28.476 16.424-13.012 7.505-15.464 8.919-28.476-16.424Zm57.237.494v32.842l-28.476 16.424v-32.842l28.476-16.424Zm0 99.515-28.476-16.424v-32.842l28.476 16.424v32.842Zm.284-33.336-28.476-16.424 13.012-7.505 15.464-8.919 28.476 16.424-13.314 7.681-15.162 8.743Zm28.76 16.912-28.476 16.424v-32.842l28.476-16.424v32.842Zm0-33.825-28.476-16.424v-32.842l28.476 16.424v32.842Zm.285-33.336-28.476-16.424 13.314-7.681 15.162-8.743 28.473 16.424-13.01 7.505-15.463 8.919Zm.284.494 28.479-16.424v32.842l-28.479 16.424v-32.842Zm28.759 49.755-28.48-16.424 13.01-7.505 15.47-8.919 28.47 16.424-28.47 16.424Zm28.76-16.913-28.48-16.424v-32.842l28.48 16.424v32.842Zm.28-33.336-28.48-16.424 13.02-7.504 15.46-8.92 28.48 16.424-28.48 16.424Zm28.76-16.912-28.47-16.424v-32.842l28.47 16.424v32.842ZM293.548 276.849v.33l.284-.165.284.165v-.33l28.761-16.588 28.76 16.588v.33l.285-.165.284.165v-.33l28.76-16.588 29.33 16.912v-34.154l-28.761-16.589 21.248-12.254 7.222-4.164 28.903 16.668.284-.494-28.902-16.669v-32.842l28.76 16.589 28.761-16.589.284-.164.284.164v-.329l28.761-16.589 28.903 16.668.284-.494-28.903-16.668v-32.842l28.761 16.583 28.76-16.583.285-.165.284.165v-.33l28.76-16.588 28.761 16.588v33.502l29.045 16.747v33.501l29.187 16.833.284-.494-28.903-16.668V176.67l28.761 16.588 28.76-16.588.285-.165.284.165v-.33l28.76-16.588 28.761 16.588v33.337h.568V176.67l14.145 8.158 14.61 8.425 28.761-16.589.284-.165.284.165v-.329l28.903-16.669-.284-.494-28.619 16.504v-32.843l29.33-16.912-29.33-16.912V75.837l28.903-16.668.142-.08V25.923l28.761 16.589 28.76-16.589v32.842l-28.903 16.669.285.494 28.902-16.668 28.761 16.588v.33l.284-.165.285.165v-.33l28.476-16.424v33.007h.568V25.594L990.896 9.01l28.764 16.583v.33l.28-.165.29.164v-.33l28.9-16.667.14-.08v-33.501l.28-.165-.28-.165v-33.5l-29.04-16.748v-33.501l-29.05-16.748v-.33l-.284.165-.284-.165-28.619-16.503-.142-.08-28.76 16.589-.285.165-.284-.165-28.618-16.503-.143-.08-29.044 16.748-.285-.165v.33l-.284.164.284.165v33.172l-28.76 16.583-.285-.165v.33l-.284.164.284.165v33.171l-28.476 16.424-.284.165-.284-.165v.33L787.582-8.384 758.68-25.053l-.285.495L787.298-7.89v32.842L758.537 8.369l-28.76 16.583-.284.165-.285-.165-28.76-16.583-28.761 16.583V-7.89l28.903-16.668-.284-.495-28.903 16.669-29.329-16.913v33.83l-13.735 7.92-14.741 8.499V-8.055h-.569v33.007l-28.76-16.583-28.761 16.583-.284.165-29.045-16.748-28.76 16.583V-8.055h-.569v33.336L467.947 41.95l.285.494L496.85 25.94v32.843l-28.476 16.423-.285.165-.284-.165-28.76-16.588L410 75.365l-.285-.164v.33l-.284.164.284.165v33.171l-28.476 16.424-.284.165-.284-.165-28.619-16.503-.284.494 28.618 16.503-28.476 16.424-28.76-16.583v-.329l-.285.165-.284-.165v.329l-28.903 16.669-.142.079v33.172l-28.76-16.589-29.045 16.748-.284-.165v.329l-.285.165.285.165v33.172l-28.761 16.588-.284-.165v.33l-.285.165.285.164v33.502l29.045 16.747v.33l.284-.165.284.165v-.33l28.761-16.588 28.772 16.571Zm0-.659-28.476-16.424v-32.842l28.476 16.424v32.842Zm29.044-16.424-28.476 16.424v-32.842l28.476-16.424v32.842Zm29.045 16.424-28.476-16.424v-32.842l28.476 16.424v32.842Zm29.045-16.424-28.476 16.424v-32.842l28.476-16.424v32.842Zm29.045-16.418v32.842l-28.476-16.424v-32.842l28.476 16.424Zm0-33.831-28.476 16.424v-32.842l28.476-16.424v32.842Zm29.323-16.912-28.476-16.424 13.013-7.504 15.463-8.92 28.476 16.424-28.476 16.424Zm-28.754-16.912v-32.842l28.476-16.424v32.842l-28.476 16.424Zm57.515 0-28.476-16.424v-32.842l28.476 16.424v32.842Zm29.045-16.424-28.477 16.424v-32.842l28.477-16.424v32.842Zm29.329-16.913-28.476-16.424 13.012-7.504 15.464-8.92 28.476 16.424-28.476 16.424Zm-28.761-16.912V92.602L525.9 76.178v32.842l-28.476 16.424Zm57.521 0-28.476-16.424V76.178l28.476 16.424v32.842Zm29.039-16.424-28.476 16.424V92.602l28.476-16.424v32.842Zm29.045 16.424-28.476-16.424V76.178l28.476 16.424v32.842Zm29.045 50.249-28.476-16.424v-32.842l28.476 16.424v32.842Zm.284-33.337-28.476-16.424 13.013-7.504 15.463-8.92 28.476 16.424-13.996 8.073-14.48 8.351Zm-28.76-16.912V92.602l28.476-16.424v32.842l-28.476 16.424Zm29.045-16.424V76.178l28.476 16.424v32.842l-28.476-16.424Zm0 33.825 28.476-16.424v32.842l-28.476 16.424v-32.842Zm28.76 49.76-28.476-16.424 13.012-7.504 15.464-8.92 28.476 16.424-28.476 16.424Zm28.76-16.912-28.476-16.424v-32.842l28.476 16.424v32.842Zm.285-33.337-28.476-16.424 13.012-7.504 15.464-8.92 28.476 16.424-13.996 8.073-14.48 8.351Zm-28.761-16.912V92.602l28.476-16.424v32.842l-28.476 16.424Zm57.516 33.825-28.477 16.424v-32.842l28.477-16.424v32.842Zm0-33.825-28.477-16.424V76.178l28.477 16.424v32.842Zm29.044 50.249-28.476-16.424v-32.842l28.476 16.424v32.842Zm.285-33.337-28.476-16.424 28.476-16.424 28.476 16.424-14.252 8.221-14.224 8.203Zm43.524-58.6-14.479 8.351L759.1 75.684l13.314-7.681 15.163-8.743 15.463 8.919 13.013 7.505-13.997 8.072Zm14.281-7.578v32.842l-28.476 16.424V92.602l28.476-16.424Zm-29.045 16.418v32.842l-28.476-16.424V76.172l28.476 16.424Zm-28.476 50.249 28.476-16.424v32.842l-28.476 16.424v-32.842Zm28.761 49.76-15.163-8.743-13.314-7.681 13.314-7.681 15.163-8.743 28.476 16.424-28.476 16.424Zm28.76-16.912-28.476-16.424v-32.842l28.476 16.424v32.842Zm28.76-49.761-28.476 16.424-28.476-16.424 13.013-7.504 15.463-8.92 28.476 16.424Zm.285-67.16-28.476 16.423V42.353l28.476-16.424v32.842Zm29.323-16.919-28.476-16.424 13.997-8.073 14.479-8.35 21.771 12.554 6.705 3.87-28.476 16.423ZM845.95 24.94V-7.901l28.477-16.424V8.518L845.95 24.94ZM903.466-8.23V24.94l-6.677-3.852L874.99 8.517v-33.172l28.76-16.589 28.476 16.424-28.76 16.589ZM874.99-25.308v-32.848l28.476-16.424v32.842l-28.476 16.43Zm29.044-16.424v-32.842l13.997 8.073 14.48 8.35v32.843l-16.977-9.794-11.5-6.63Zm28.477 17.406V8.518L904.034 24.94V-7.903l28.477-16.424Zm0 99.515-28.477-16.424V25.923l28.477 16.424V75.19Zm.284-33.336-28.476-16.424 13.996-8.073 14.48-8.35 28.476 16.423-13.012 7.505-15.464 8.919Zm28.76 16.918-28.476 16.424V42.353l28.476-16.424v32.842Zm0-33.83L933.079 8.517v-32.843l13.525 7.8 14.951 8.624v32.843Zm.285-33.337L933.364-24.82l28.476-16.424 28.476 16.424L961.84-8.396Zm-28.761-16.912v-32.848l28.476-16.424v32.842l-28.476 16.43ZM990.6 8.517 962.124 24.94V-7.903L990.6-24.326V8.518Zm0-33.825-14.252-8.22-14.224-8.204v-32.842l14.252 8.22L990.6-58.15v32.842Zm29.04 50.249L991.163 8.517v-32.843l13.527 7.8 14.95 8.624v32.843Zm29.04-16.424-28.47 16.424V-7.903l28.47-16.424V8.518Zm-28.47-83.091 28.47 16.424v32.842l-13.99-8.073-14.48-8.351v-32.842Zm28.19 49.754-28.48 16.424-28.472-16.424 28.472-16.424 28.48 16.424Zm-57.231-.488v-32.848l28.471-16.424v32.842l-28.471 16.43Zm0-99.515 28.471 16.424v32.842l-13.99-8.073-14.481-8.351v-32.842Zm-.284 33.336 28.475 16.424-28.475 16.424-28.477-16.424 28.477-16.424Zm-.285-.494-28.476 16.424V-108.4l28.476-16.424v32.842Zm-28.76-49.76 28.476 16.424-28.476 16.424-28.476-16.424 28.476-16.424Zm-28.761 16.918 13.997 8.073 14.479 8.351v32.842l-13.996-8.073-14.48-8.351v-32.842Zm-.284 33.336 28.476 16.424-28.476 16.424-28.476-16.424 28.476-16.424Zm-.284-.494-28.477 16.424V-108.4l28.477-16.424v32.842Zm-28.761-49.76 28.476 16.424-28.476 16.424-28.476-16.424 28.476-16.424Zm-28.76 16.918 13.996 8.073 14.48 8.351v32.842l-13.997-8.073-14.479-8.351v-32.842Zm-.285 33.336 28.476 16.424-28.476 16.424-28.476-16.424 28.476-16.424ZM845.95-74.574l13.997 8.073 14.48 8.35v32.843l-13.997-8.073-14.48-8.351v-32.842Zm-.284 33.336 28.476 16.424L845.666-8.39 817.19-24.814l28.476-16.424Zm-28.76 16.912 13.524 7.8 14.952 8.624v32.843L816.906 8.517v-32.843Zm-.285 33.337 28.476 16.424-13.012 7.504-15.464 8.92-17.101-9.863-11.375-6.561 13.997-8.073 14.479-8.351Zm-28.76-16.913 28.476-16.424V8.518L787.861 24.94V-7.903Zm-.284 33.66 11.482 6.625 17.278 9.964V75.19l-13.883-8.004-14.877-8.579-14.611 8.425-14.144 8.158V42.347l17.317-9.987 11.159-6.437.279-.164ZM758.532 9.012l28.476 16.424-28.476 16.424-28.476-16.424L758.532 9.01Zm-28.761 16.912 28.476 16.424V75.19l-18.984-10.947-9.492-5.477V25.923Zm-.284 33.337 28.76 16.588v33.172l-21.367 12.322-7.109 4.096V92.266l-28.76-16.582 22.72-13.107 5.756-3.317Zm-.284-.489-17.102 9.862-11.375 6.556V42.347l28.477-16.424v32.848Zm-28.755-49.76 28.476 16.424-13.013 7.504-15.463 8.92-28.476-16.424L700.448 9.01Zm-28.761 16.912 28.476 16.424V75.19l-28.476-16.424V25.923Zm28.192 49.76-13.996 8.073-14.48 8.351-28.476-16.423 13.012-7.505 15.464-8.92 28.476 16.425Zm-57.236-.494V42.347l28.476-16.424v32.842L642.643 75.19Zm0-99.514 8.946 5.158 19.53 11.265v32.843L642.643 8.517v-32.843Zm-14.765 41.687 14.48-8.351 28.476 16.424-13.012 7.504-15.464 8.92-28.476-16.424 13.996-8.073Zm-14.28 8.561 28.476 16.424V75.19l-28.476-16.424V25.923Zm-.285 33.337 28.476 16.424-13.996 8.072-14.48 8.351-28.476-16.423 13.314-7.681 15.162-8.743Zm-.284-.489-28.476 16.424V42.353l28.476-16.424v32.842ZM555.514 25.6l28.76-16.588 28.476 16.424-28.618 16.503-.142.08v33.171l-28.476-16.424V25.6Zm9.202 39.137L583.7 75.684l-13.996 8.072-14.48 8.351-28.476-16.423 13.012-7.505 15.464-8.92 9.492 5.477Zm-9.771-5.965-28.476 16.424V42.353l28.476-16.424v32.842Zm-28.76-49.76 28.476 16.424-13.013 7.504-15.463 8.92-28.476-16.424L526.185 9.01Zm-28.761 16.912L525.9 42.347V75.19l-28.476-16.424V25.923Zm-.284 33.337 28.476 16.424-13.996 8.072-14.48 8.351-28.476-16.423L497.14 59.26Zm-28.761 16.918 28.477 16.424v32.842l-28.477-16.424V76.178Zm-.284 33.33 28.476 16.424-13.996 8.073-14.48 8.351-28.476-16.424 13.012-7.504 15.464-8.92Zm-.284-.488-28.476 16.424V92.602l28.476-16.424v32.842ZM439.05 59.26l28.476 16.424-13.996 8.072-14.48 8.351-28.476-16.423L439.05 59.26Zm-28.754 16.918 28.476 16.424v32.842l-28.476-16.424V76.178Zm-.285 33.33 28.476 16.424-13.996 8.073-14.48 8.351-28.476-16.424 28.476-16.424Zm-28.76 16.919 28.476 16.424v32.842l-28.476-16.424v-32.842Zm-.285 33.336 28.476 16.424-13.313 7.681-15.163 8.743-28.476-16.424 13.013-7.505 15.463-8.919Zm-28.76-16.918 28.476-16.424v32.842l-28.476 16.424v-32.842Zm0 33.83 28.476 16.424v32.842l-28.476-16.424v-32.842Zm28.192 49.761-13.013 7.504-15.463 8.92-28.477-16.424 13.013-7.505 15.464-8.919 28.476 16.424Zm-57.237-.495v-32.842l28.476-16.424v32.842l-28.476 16.424Zm0-99.514 28.476 16.424v32.842l-28.476-16.424v-32.842Zm-.284 33.336 28.476 16.424-13.013 7.499-15.463 8.919-28.476-16.424 13.012-7.504 15.464-8.914Zm-28.761-16.918 28.476-16.424v32.842l-28.476 16.424v-32.842Zm0 33.83 28.476 16.424v32.842l-28.476-16.424v-32.842Zm-.284 33.337 28.476 16.424-13.012 7.504-15.464 8.92-28.476-16.424 13.012-7.505 15.464-8.919Zm-.284-.495-28.476 16.424v-32.842l28.476-16.424v32.842Zm-28.755-49.754 28.476 16.424-13.013 7.499-15.463 8.919-28.476-16.424 28.476-16.418ZM235.464 276.19l-28.476-16.424v-32.842l28.476 16.424v32.842Zm.284-33.336-28.476-16.424 28.476-16.424 28.476 16.424-13.012 7.505-15.464 8.919Zm28.76 16.912-28.476 16.424v-32.842l28.476-16.424v32.842Zm0-33.825-28.476-16.424v-32.842l28.476 16.424v32.842Z" fill="#000" fill-opacity="0.15"></path></g><path d="m30 34 28.04-16.5v33L30 66.5V34ZM174.039 84l-28.04-16.27V101l28.04 16V84ZM175 16.5V0h16c2.755 0 5 2.5 6 4l-22 12.5Z" fill="#000" fill-opacity="0.05"></path></g></svg>